<svg width="40" height="40" viewBox="0 0 40 40" fill="none" xmlns="http://www.w3.org/2000/svg">
<g clip-path="url(#clip0)">
<path d="M20.0001 40.0001C31.0458 40.0001 40.0001 31.0458 40.0001 20.0001C40.0001 8.95437 31.0458 6.10352e-05 20.0001 6.10352e-05C8.95437 6.10352e-05 6.10352e-05 8.95437 6.10352e-05 20.0001C6.10352e-05 31.0458 8.95437 40.0001 20.0001 40.0001Z" fill="#3C5A9A"/>
<path d="M26.5031 6.13904H22.0726C19.4435 6.13904 16.5191 7.24484 16.5191 11.056C16.5319 12.3839 16.5191 13.6557 16.5191 15.087H13.4775V19.9271H16.6132V33.861H22.3753V19.8352H26.1784L26.5225 15.0734H22.276C22.276 15.0734 22.2855 12.9552 22.276 12.34C22.276 10.834 23.8431 10.9202 23.9373 10.9202C24.6831 10.9202 26.133 10.9224 26.5053 10.9202V6.13904H26.5031Z" fill="white"/>
</g>
<defs>
<clipPath id="clip0">
<rect width="40" height="40" fill="white"/>
</clipPath>
</defs>
</svg>
