<svg width="40" height="40" viewBox="0 0 40 40" fill="none" xmlns="http://www.w3.org/2000/svg">
<path d="M38.8889 0H1.11111C0.497461 0 0 0.497461 0 1.11111V38.8889C0 39.5025 0.497461 40 1.11111 40H38.8889C39.5025 40 40 39.5025 40 38.8889V1.11111C40 0.497461 39.5025 0 38.8889 0Z" fill="#DC4E41"/>
<path d="M16 19V21.4H19.97C19.81 22.43 18.77 24.42 16 24.42C13.61 24.42 11.66 22.44 11.66 20C11.66 17.56 13.61 15.58 16 15.58C17.36 15.58 18.27 16.16 18.79 16.66L20.69 14.83C19.47 13.69 17.89 13 16 13C12.13 13 9 16.13 9 20C9 23.87 12.13 27 16 27C20.04 27 22.72 24.16 22.72 20.16C22.72 19.7 22.67 19.35 22.61 19H16Z" fill="white"/>
<path d="M31 19H29V17H27V19H25V21H27V23H29V21H31" fill="white"/>
</svg>
