<svg width="72" height="72" viewBox="0 0 72 72" fill="none" xmlns="http://www.w3.org/2000/svg">
<path d="M39.1429 30.8571C39.1429 28.875 36.8036 28 35.1429 28C34.8393 28 34.5714 28.2679 34.5714 28.5714C34.5714 28.875 34.8393 29.1429 35.1429 29.1429C36.0893 29.1429 38 29.625 38 30.8571C38 31.1607 38.2679 31.4286 38.5714 31.4286C38.875 31.4286 39.1429 31.1607 39.1429 30.8571ZM42 30.8571C42 32 41.5357 33.1964 40.7857 34.0714C40.4464 34.4643 40.0536 34.8393 39.6964 35.25C38.4286 36.7679 37.3571 38.5536 37.1786 40.5714H33.1071C32.9286 38.5536 31.8571 36.7679 30.5893 35.25C30.2321 34.8393 29.8393 34.4643 29.5 34.0714C28.75 33.1964 28.2857 32 28.2857 30.8571C28.2857 27.2857 31.9107 25.1429 35.1429 25.1429C38.375 25.1429 42 27.2857 42 30.8571ZM44.2857 30.8571C44.2857 26 39.6607 22.8571 35.1429 22.8571C30.625 22.8571 26 26 26 30.8571C26 32.6964 26.6071 34.2857 27.8393 35.6429C29.0714 37 30.6964 38.9107 30.8393 40.8214C30.3214 41.125 30 41.6964 30 42.2857C30 42.7143 30.1607 43.125 30.4464 43.4286C30.1607 43.7321 30 44.1429 30 44.5714C30 45.1607 30.3036 45.6964 30.8036 46.0179C30.6607 46.2679 30.5714 46.5714 30.5714 46.8571C30.5714 48.0179 31.4821 48.5714 32.5179 48.5714C32.9821 49.6071 34.0179 50.2857 35.1429 50.2857C36.2679 50.2857 37.3036 49.6071 37.7679 48.5714C38.8036 48.5714 39.7143 48.0179 39.7143 46.8571C39.7143 46.5714 39.625 46.2679 39.4821 46.0179C39.9821 45.6964 40.2857 45.1607 40.2857 44.5714C40.2857 44.1429 40.125 43.7321 39.8393 43.4286C40.125 43.125 40.2857 42.7143 40.2857 42.2857C40.2857 41.6964 39.9643 41.125 39.4464 40.8214C39.5893 38.9107 41.2143 37 42.4464 35.6429C43.6786 34.2857 44.2857 32.6964 44.2857 30.8571Z" fill="#FF8B38"/>
<rect x="1" y="1" width="70" height="70" rx="35" stroke="#FF8B38" stroke-width="2"/>
</svg>
