<svg width="72" height="72" viewBox="0 0 72 72" fill="none" xmlns="http://www.w3.org/2000/svg">
<rect x="1" y="1" width="70" height="70" rx="35" stroke="#FF8B38" stroke-width="2"/>
<path d="M24.8571 40.4286C24.8571 40.2679 24.7321 40.1429 24.5714 40.1429H22.8571C22.6964 40.1429 22.5714 40.2679 22.5714 40.4286V42.1429C22.5714 42.3036 22.6964 42.4286 22.8571 42.4286H24.5714C24.7321 42.4286 24.8571 42.3036 24.8571 42.1429V40.4286ZM27.1429 35.8571C27.1429 35.6964 27.0179 35.5714 26.8571 35.5714H22.8571C22.6964 35.5714 22.5714 35.6964 22.5714 35.8571V37.5714C22.5714 37.7321 22.6964 37.8571 22.8571 37.8571H26.8571C27.0179 37.8571 27.1429 37.7321 27.1429 37.5714V35.8571ZM24.8571 31.2857C24.8571 31.125 24.7321 31 24.5714 31H22.8571C22.6964 31 22.5714 31.125 22.5714 31.2857V33C22.5714 33.1607 22.6964 33.2857 22.8571 33.2857H24.5714C24.7321 33.2857 24.8571 33.1607 24.8571 33V31.2857ZM43.1429 40.4286C43.1429 40.2679 43.0179 40.1429 42.8571 40.1429H27.4286C27.2679 40.1429 27.1429 40.2679 27.1429 40.4286V42.1429C27.1429 42.3036 27.2679 42.4286 27.4286 42.4286H42.8571C43.0179 42.4286 43.1429 42.3036 43.1429 42.1429V40.4286ZM31.7143 35.8571C31.7143 35.6964 31.5893 35.5714 31.4286 35.5714H29.7143C29.5536 35.5714 29.4286 35.6964 29.4286 35.8571V37.5714C29.4286 37.7321 29.5536 37.8571 29.7143 37.8571H31.4286C31.5893 37.8571 31.7143 37.7321 31.7143 37.5714V35.8571ZM29.4286 31.2857C29.4286 31.125 29.3036 31 29.1429 31H27.4286C27.2679 31 27.1429 31.125 27.1429 31.2857V33C27.1429 33.1607 27.2679 33.2857 27.4286 33.2857H29.1429C29.3036 33.2857 29.4286 33.1607 29.4286 33V31.2857ZM36.2857 35.8571C36.2857 35.6964 36.1607 35.5714 36 35.5714H34.2857C34.125 35.5714 34 35.6964 34 35.8571V37.5714C34 37.7321 34.125 37.8571 34.2857 37.8571H36C36.1607 37.8571 36.2857 37.7321 36.2857 37.5714V35.8571ZM34 31.2857C34 31.125 33.875 31 33.7143 31H32C31.8393 31 31.7143 31.125 31.7143 31.2857V33C31.7143 33.1607 31.8393 33.2857 32 33.2857H33.7143C33.875 33.2857 34 33.1607 34 33V31.2857ZM40.8571 35.8571C40.8571 35.6964 40.7321 35.5714 40.5714 35.5714H38.8571C38.6964 35.5714 38.5714 35.6964 38.5714 35.8571V37.5714C38.5714 37.7321 38.6964 37.8571 38.8571 37.8571H40.5714C40.7321 37.8571 40.8571 37.7321 40.8571 37.5714V35.8571ZM47.7143 40.4286C47.7143 40.2679 47.5893 40.1429 47.4286 40.1429H45.7143C45.5536 40.1429 45.4286 40.2679 45.4286 40.4286V42.1429C45.4286 42.3036 45.5536 42.4286 45.7143 42.4286H47.4286C47.5893 42.4286 47.7143 42.3036 47.7143 42.1429V40.4286ZM38.5714 31.2857C38.5714 31.125 38.4464 31 38.2857 31H36.5714C36.4107 31 36.2857 31.125 36.2857 31.2857V33C36.2857 33.1607 36.4107 33.2857 36.5714 33.2857H38.2857C38.4464 33.2857 38.5714 33.1607 38.5714 33V31.2857ZM43.1429 31.2857C43.1429 31.125 43.0179 31 42.8571 31H41.1429C40.9821 31 40.8571 31.125 40.8571 31.2857V33C40.8571 33.1607 40.9821 33.2857 41.1429 33.2857H42.8571C43.0179 33.2857 43.1429 33.1607 43.1429 33V31.2857ZM47.7143 31.2857C47.7143 31.125 47.5893 31 47.4286 31H45.7143C45.5536 31 45.4286 31.125 45.4286 31.2857V35.5714H43.4286C43.2679 35.5714 43.1429 35.6964 43.1429 35.8571V37.5714C43.1429 37.7321 43.2679 37.8571 43.4286 37.8571H47.4286C47.5893 37.8571 47.7143 37.7321 47.7143 37.5714V31.2857ZM50 44.7143H20.2857V28.7143H50V44.7143ZM52.2857 28.7143C52.2857 27.4464 51.2679 26.4286 50 26.4286H20.2857C19.0179 26.4286 18 27.4464 18 28.7143V44.7143C18 45.9821 19.0179 47 20.2857 47H50C51.2679 47 52.2857 45.9821 52.2857 44.7143V28.7143Z" fill="#FF8B38"/>
</svg>
