<svg width="72" height="72" viewBox="0 0 72 72" fill="none" xmlns="http://www.w3.org/2000/svg">
<path d="M43.8036 30.6786C43.6429 30.5179 43.4286 30.4107 43.1964 30.4107C43.125 30.4107 43.0536 30.4286 42.9821 30.4464L35.9107 32.1964L38.9643 23.9286C39.0179 23.8214 39.0536 23.7143 39.0536 23.6071C39.0536 23.1964 38.6964 22.8571 38.25 22.8571H32.3929C32.0179 22.8571 31.6964 23.0893 31.6071 23.4286L28.0179 38.1607C27.9643 38.4107 28.0357 38.6786 28.25 38.8571C28.3929 38.9821 28.6071 39.0536 28.8036 39.0536C28.875 39.0536 28.9464 39.0536 29.0179 39.0357L36.2679 37.2321L32.75 51.6607C32.6607 52.0357 32.8929 52.4107 33.2857 52.5357C33.375 52.5536 33.4643 52.5714 33.5357 52.5714C33.8571 52.5714 34.1429 52.3929 34.2857 52.125L43.9286 31.4643C44.0536 31.1964 44 30.8929 43.8036 30.6786Z" fill="#FF8B38"/>
<rect x="1" y="1" width="70" height="70" rx="35" stroke="#FF8B38" stroke-width="2"/>
</svg>
