<svg width="40" height="40" viewBox="0 0 40 40" fill="none" xmlns="http://www.w3.org/2000/svg">
<path d="M10.143 39.8585C7.76414 39.7503 6.4719 39.3545 5.61239 39.0192C4.4735 38.5758 3.66154 38.048 2.80679 37.1944C1.95203 36.3408 1.42301 35.5289 0.98196 34.39C0.646714 33.5305 0.25084 32.2382 0.142658 29.8594C0.0237763 27.288 0 26.5165 0 20.0018C0 13.4871 0.0261539 12.7167 0.141469 10.143C0.249651 7.76414 0.647903 6.47428 0.980771 5.61239C1.4242 4.4735 1.95322 3.66154 2.8056 2.8056C3.65917 1.95203 4.47113 1.42182 5.6112 0.980771C6.47071 0.645526 7.76295 0.249651 10.1418 0.141469C12.7144 0.0237763 13.4871 0 19.9994 0C26.5141 0 27.2845 0.0261539 29.8582 0.141469C32.237 0.249651 33.5269 0.647903 34.3888 0.980771C35.5277 1.42182 36.3396 1.95203 37.1944 2.8056C38.0492 3.65917 38.5758 4.47232 39.0192 5.6112C39.3545 6.47071 39.7503 7.76295 39.8585 10.1418C39.9762 12.7155 40 13.4859 40 20.0006C40 26.5129 39.9762 27.2856 39.8585 29.8594C39.7503 32.2382 39.3521 33.5305 39.0192 34.39C38.5758 35.5289 38.048 36.3408 37.1944 37.1944C36.3408 38.048 35.5277 38.5758 34.3888 39.0192C33.5293 39.3545 32.237 39.7503 29.8582 39.8585C27.2868 39.9762 26.5141 40 19.9994 40C13.4871 40 12.7144 39.9774 10.143 39.8585Z" fill="url(#paint0_radial)"/>
<path d="M10.143 39.8585C7.76414 39.7503 6.4719 39.3545 5.61239 39.0192C4.4735 38.5758 3.66154 38.048 2.80679 37.1944C1.95203 36.3408 1.42301 35.5289 0.98196 34.39C0.646714 33.5305 0.25084 32.2382 0.142658 29.8594C0.0237763 27.288 0 26.5165 0 20.0018C0 13.4871 0.0261539 12.7167 0.141469 10.143C0.249651 7.76414 0.647903 6.47428 0.980771 5.61239C1.4242 4.4735 1.95322 3.66154 2.8056 2.8056C3.65917 1.95203 4.47113 1.42182 5.6112 0.980771C6.47071 0.645526 7.76295 0.249651 10.1418 0.141469C12.7144 0.0237763 13.4871 0 19.9994 0C26.5141 0 27.2845 0.0261539 29.8582 0.141469C32.237 0.249651 33.5269 0.647903 34.3888 0.980771C35.5277 1.42182 36.3396 1.95203 37.1944 2.8056C38.0492 3.65917 38.5758 4.47232 39.0192 5.6112C39.3545 6.47071 39.7503 7.76295 39.8585 10.1418C39.9762 12.7155 40 13.4859 40 20.0006C40 26.5129 39.9762 27.2856 39.8585 29.8594C39.7503 32.2382 39.3521 33.5305 39.0192 34.39C38.5758 35.5289 38.048 36.3408 37.1944 37.1944C36.3408 38.048 35.5277 38.5758 34.3888 39.0192C33.5293 39.3545 32.237 39.7503 29.8582 39.8585C27.2868 39.9762 26.5141 40 19.9994 40C13.4871 40 12.7144 39.9774 10.143 39.8585Z" fill="url(#paint1_radial)"/>
<path d="M15.0892 20.0852C15.0892 17.3496 17.3062 15.1314 20.0418 15.1314C22.7774 15.1314 24.9956 17.3496 24.9956 20.0852C24.9956 22.8207 22.7774 25.0389 20.0418 25.0389C17.3062 25.0389 15.0892 22.8207 15.0892 20.0852ZM12.4113 20.0852C12.4113 24.2995 15.8275 27.7156 20.0418 27.7156C24.2561 27.7156 27.6723 24.2995 27.6723 20.0852C27.6723 15.8708 24.2561 12.4547 20.0418 12.4547C15.8275 12.4547 12.4114 15.8706 12.4114 20.0852H12.4113ZM26.1913 12.1521C26.1911 12.5048 26.2956 12.8496 26.4914 13.1429C26.6872 13.4363 26.9656 13.6649 27.2914 13.8C27.6172 13.9351 27.9757 13.9706 28.3217 13.9019C28.6676 13.8332 28.9854 13.6635 29.2349 13.4143C29.4844 13.165 29.6544 12.8473 29.7233 12.5014C29.7923 12.1555 29.7571 11.797 29.6222 11.4711C29.4874 11.1452 29.259 10.8666 28.9658 10.6705C28.6726 10.4745 28.3279 10.3698 27.9752 10.3696H27.9745C27.5017 10.3698 27.0484 10.5577 26.7141 10.8919C26.3797 11.2261 26.1917 11.6794 26.1913 12.1521ZM14.0383 32.1811C12.5895 32.1151 11.802 31.8737 11.2787 31.6699C10.5849 31.3998 10.0899 31.0781 9.56943 30.5583C9.04896 30.0386 8.7268 29.544 8.45789 28.8503C8.25389 28.3272 8.01256 27.5395 7.9467 26.0907C7.87466 24.5243 7.86027 24.0538 7.86027 20.0854C7.86027 16.117 7.87585 15.6478 7.9467 14.0801C8.01268 12.6313 8.25579 11.8452 8.45789 11.3205C8.72799 10.6267 9.04968 10.1317 9.56943 9.61127C10.0892 9.09081 10.5837 8.76864 11.2787 8.49973C11.8018 8.29573 12.5895 8.0544 14.0383 7.98854C15.6047 7.9165 16.0752 7.90212 20.0418 7.90212C24.0084 7.90212 24.4794 7.91745 26.0471 7.98878C27.4959 8.05476 28.282 8.29787 28.8067 8.49997C29.5005 8.76888 29.9955 9.09176 30.5159 9.61151C31.0364 10.1313 31.3574 10.627 31.6275 11.3208C31.8315 11.8439 32.0728 12.6316 32.1387 14.0804C32.2107 15.648 32.2251 16.1173 32.2251 20.0856C32.2251 24.054 32.2107 24.5232 32.1387 26.0909C32.0727 27.5397 31.8302 28.3272 31.6275 28.8505C31.3574 29.5443 31.0357 30.0393 30.5159 30.5586C29.9962 31.0778 29.5005 31.4 28.8067 31.6701C28.2836 31.8741 27.4959 32.1154 26.0471 32.1813C24.4807 32.2533 24.0102 32.2677 20.0418 32.2677C16.0734 32.2677 15.6042 32.2533 14.0383 32.1813V32.1811ZM13.9152 5.31503C12.3333 5.38707 11.2523 5.63791 10.3083 6.00525C9.33119 6.3846 8.50294 6.89353 7.67589 7.71928C6.84883 8.54503 6.34121 9.37339 5.96186 10.3517C5.59452 11.2963 5.34368 12.3767 5.27163 13.9586C5.1984 15.5431 5.18164 16.0496 5.18164 20.0852C5.18164 24.1207 5.1984 24.6272 5.27163 26.2117C5.34368 27.7938 5.59452 28.874 5.96186 29.8187C6.34121 30.7957 6.84895 31.6256 7.67589 32.451C8.50282 33.2764 9.33 33.7846 10.3083 34.1651C11.2541 34.5324 12.3333 34.7832 13.9152 34.8553C15.5005 34.9273 16.0062 34.9453 20.0418 34.9453C24.0773 34.9453 24.5839 34.9285 26.1683 34.8553C27.7504 34.7832 28.8307 34.5324 29.7753 34.1651C30.7524 33.7846 31.5806 33.2768 32.4077 32.451C33.2348 31.6253 33.7413 30.7957 34.1217 29.8187C34.4891 28.874 34.7411 27.7936 34.8119 26.2117C34.884 24.6261 34.9008 24.1207 34.9008 20.0852C34.9008 16.0496 34.884 15.5431 34.8119 13.9586C34.7399 12.3766 34.4891 11.2957 34.1217 10.3517C33.7413 9.37458 33.2334 8.54633 32.4077 7.71928C31.5819 6.89222 30.7524 6.3846 29.7765 6.00525C28.8307 5.63791 27.7503 5.38588 26.1695 5.31503C24.5848 5.24263 24.0785 5.22504 20.0436 5.22504C16.0086 5.22504 15.5011 5.2418 13.9158 5.31503" fill="white"/>
<defs>
<radialGradient id="paint0_radial" cx="0" cy="0" r="1" gradientUnits="userSpaceOnUse" gradientTransform="translate(2.58876 39.1237) scale(50.7852)">
<stop offset="0.09" stop-color="#FA8F21"/>
<stop offset="0.78" stop-color="#D82D7E"/>
</radialGradient>
<radialGradient id="paint1_radial" cx="0" cy="0" r="1" gradientUnits="userSpaceOnUse" gradientTransform="translate(27.7066 37.8393) scale(44.6914)">
<stop offset="0.64" stop-color="#8C3AAA" stop-opacity="0"/>
<stop offset="1" stop-color="#8C3AAA"/>
</radialGradient>
</defs>
</svg>
