<svg width="40" height="40" viewBox="0 0 40 40" fill="none" xmlns="http://www.w3.org/2000/svg">
<g clip-path="url(#clip0)">
<path d="M20 6.10352e-05C8.95422 6.10352e-05 0 8.95425 0 20C0 31.0457 8.95422 39.9999 20 39.9999C31.0457 39.9999 40 31.0457 40 20C39.9999 8.95425 31.0455 6.10352e-05 20 6.10352e-05ZM14.6639 29.669H10.2727V15.4823H14.6639V29.669ZM12.4474 13.6245C11.0133 13.6245 9.85069 12.4524 9.85069 11.0068C9.85069 9.56105 11.0135 8.38905 12.4474 8.38905C13.8814 8.38905 15.044 9.56105 15.044 11.0068C15.0441 12.4525 13.8814 13.6245 12.4474 13.6245ZM31.1199 29.669H26.75V22.2222C26.75 20.1797 25.9742 19.0396 24.3592 19.0396C22.6015 19.0396 21.6833 20.227 21.6833 22.2222V29.669H17.4716V15.4823H21.6833V17.393C21.6833 17.393 22.9501 15.0496 25.9583 15.0496C28.9665 15.0496 31.12 16.8864 31.12 20.6862L31.1199 29.669Z" fill="url(#paint0_linear)"/>
</g>
<defs>
<linearGradient id="paint0_linear" x1="5.85785" y1="5.85789" x2="34.142" y2="34.1421" gradientUnits="userSpaceOnUse">
<stop stop-color="#2489BE"/>
<stop offset="1" stop-color="#0575B3"/>
</linearGradient>
<clipPath id="clip0">
<rect width="40" height="40" fill="white"/>
</clipPath>
</defs>
</svg>
