<svg width="40" height="40" viewBox="0 0 40 40" fill="none" xmlns="http://www.w3.org/2000/svg">
<path d="M39.4106 19.9444C39.4106 30.6999 30.6884 39.4221 19.9329 39.4221C9.1773 39.4221 0.455078 30.6999 0.455078 19.9444C0.455078 9.18887 9.1773 0.466675 19.9329 0.466675C30.6884 0.466675 39.4106 9.18887 39.4106 19.9444Z" fill="#CE0000"/>
<path d="M18.3005 6.98892C12.8116 7.57781 7.34486 11.8 7.12263 17.8445C6.97819 21.5334 8.52264 24.3 12.2116 25.0778C12.6338 23.3334 12.7116 22.3889 12.7116 22.3889C12.7116 22.3889 11.0893 20.8334 10.9227 19.8445C9.56709 11.8889 20.556 6.45559 26.3227 12.0111C30.3006 15.8667 27.6783 27.7223 21.2561 26.4889C15.1005 25.3111 24.2672 15.8778 19.356 14.0223C15.3671 12.5111 13.2449 18.6334 15.1338 21.6667C14.0227 26.8889 11.6338 31.8111 12.6004 38.3556C15.7449 36.1889 16.8005 32.0334 17.6671 27.7C19.2449 28.6111 20.0894 29.5667 22.1005 29.7111C29.5228 30.2556 33.6672 22.6556 32.6561 15.6334C31.745 9.41114 25.2339 6.24448 18.3005 6.98892Z" fill="white"/>
</svg>
