<svg width="40" height="40" viewBox="0 0 40 40" fill="none" xmlns="http://www.w3.org/2000/svg">
<g clip-path="url(#clip0)">
<path d="M20.0001 40.0001C31.0458 40.0001 40.0001 31.0458 40.0001 20.0001C40.0001 8.95437 31.0458 6.10352e-05 20.0001 6.10352e-05C8.95437 6.10352e-05 6.10352e-05 8.95437 6.10352e-05 20.0001C6.10352e-05 31.0458 8.95437 40.0001 20.0001 40.0001Z" fill="#2DAAE1"/>
<path d="M32.8239 12.0444C31.8805 12.463 30.8673 12.7459 29.8019 12.8731C30.8892 12.2221 31.7221 11.1904 32.1154 9.96247C31.0826 10.5759 29.9523 11.0078 28.7735 11.2393C27.8143 10.2168 26.4464 9.57843 24.9331 9.57843C22.0283 9.57843 19.6725 11.9333 19.6725 14.8397C19.6725 15.2515 19.7189 15.6533 19.808 16.039C15.4353 15.8193 11.5585 13.7247 8.96362 10.542C8.51051 11.3193 8.25116 12.223 8.25116 13.1873C8.25116 15.0124 9.18012 16.6227 10.5917 17.566C9.75605 17.5401 8.93878 17.3146 8.20817 16.9082V16.9747C8.20817 19.5241 10.0215 21.6499 12.4285 22.1333C11.9864 22.2545 11.5223 22.3178 11.0423 22.3178C10.7028 22.3178 10.3735 22.2857 10.0518 22.2251C10.7214 24.3147 12.6645 25.8357 14.9661 25.8787C13.1655 27.2902 10.8965 28.1317 8.43221 28.1317C8.00776 28.1317 7.58827 28.1063 7.17645 28.0567C9.50521 29.5499 12.2702 30.4216 15.2416 30.4216C24.9187 30.4216 30.2112 22.4046 30.2112 15.4521C30.2112 15.2238 30.2062 14.9973 30.1952 14.7715C31.2263 14.0257 32.1165 13.1022 32.8239 12.0444Z" fill="white"/>
</g>
<defs>
<clipPath id="clip0">
<rect width="40" height="40" fill="white"/>
</clipPath>
</defs>
</svg>
